<svg width="952" height="256" viewBox="0 0 952 256" fill="none" xmlns="http://www.w3.org/2000/svg">
<path d="M123.827 201.845C123.827 217.965 119.781 230.515 111.688 239.492C103.597 248.405 92.8076 252.862 79.3206 252.862C73.0267 252.862 67.8569 252.135 63.8108 250.681V229.44C67.4715 231.905 72.1918 233.138 77.972 233.138C93.2569 233.138 100.899 221.505 100.899 198.241V114.603H123.827V201.845ZM213.61 252.862C193.701 252.862 177.742 246.509 165.732 233.802C153.787 221.095 147.814 204.563 147.814 184.207C147.814 162.333 153.915 144.885 166.118 131.862C178.32 118.839 194.889 112.328 215.825 112.328C235.221 112.328 250.827 118.65 262.644 131.293C274.525 143.936 280.466 160.469 280.466 180.888C280.466 203.078 274.397 220.621 262.259 233.517C250.121 246.414 233.904 252.862 213.61 252.862ZM214.669 132.146C202.018 132.146 191.71 136.793 183.747 146.086C175.847 155.38 171.897 167.612 171.897 182.785C171.897 197.893 175.751 210.063 183.458 219.293C191.164 228.523 201.247 233.138 213.706 233.138C226.937 233.138 237.372 228.744 245.015 219.957C252.657 211.169 256.478 198.873 256.478 183.069C256.478 166.822 252.754 154.273 245.304 145.422C237.918 136.572 227.707 132.146 214.669 132.146ZM412.058 195.586C412.058 233.77 393.69 252.862 356.955 252.862C321.761 252.862 304.164 234.497 304.164 197.767V114.603H327.092V193.121C327.092 219.799 337.624 233.138 358.689 233.138C378.983 233.138 389.13 220.273 389.13 194.543V114.603H412.058V195.586ZM551.26 250.586H524.48L502.42 214.172C500.428 210.822 498.469 207.977 496.543 205.638C494.68 203.236 492.754 201.276 490.762 199.759C488.836 198.241 486.717 197.135 484.405 196.439C482.093 195.745 479.492 195.397 476.601 195.397H467.354V250.586H444.523V114.603H489.992C496.479 114.603 502.451 115.362 507.911 116.879C513.369 118.396 518.121 120.704 522.168 123.802C526.214 126.837 529.361 130.661 531.608 135.276C533.92 139.827 535.077 145.17 535.077 151.301C535.077 156.106 534.338 160.531 532.861 164.578C531.448 168.56 529.393 172.132 526.696 175.293C524.063 178.391 520.851 181.046 517.062 183.259C513.337 185.471 509.13 187.178 504.442 188.379V188.759C506.947 190.15 509.13 191.698 510.993 193.405C512.856 195.049 514.621 196.755 516.291 198.526C517.961 200.296 519.598 202.319 521.205 204.595C522.874 206.807 524.705 209.399 526.696 212.371L551.26 250.586ZM467.354 132.906V177.095H486.427C489.96 177.095 493.203 176.558 496.157 175.483C499.176 174.408 501.777 172.859 503.96 170.836C506.144 168.813 507.846 166.348 509.067 163.439C510.286 160.531 510.897 157.276 510.897 153.672C510.897 147.161 508.809 142.072 504.635 138.405C500.46 134.738 494.455 132.906 486.62 132.906H467.354ZM684.586 250.586H659.54L593.552 150.638C591.882 148.109 590.501 145.486 589.408 142.768H588.831C589.345 145.675 589.601 151.902 589.601 161.449V250.586H567.444V114.603H594.129L657.902 212.181C660.599 216.227 662.334 219.009 663.104 220.525H663.49C662.848 216.922 662.527 210.822 662.527 202.224V114.603H684.586V250.586ZM775.815 252.862C755.906 252.862 739.947 246.509 727.937 233.802C715.992 221.095 710.019 204.563 710.019 184.207C710.019 162.333 716.12 144.885 728.322 131.862C740.525 118.839 757.094 112.328 778.031 112.328C797.426 112.328 813.032 118.65 824.849 131.293C836.73 143.936 842.671 160.469 842.671 180.888C842.671 203.078 836.602 220.621 824.464 233.517C812.326 246.414 796.109 252.862 775.815 252.862ZM776.874 132.146C764.222 132.146 753.915 136.793 745.951 146.086C738.052 155.38 734.102 167.612 734.102 182.785C734.102 197.893 737.956 210.063 745.663 219.293C753.37 228.523 763.452 233.138 775.911 233.138C789.141 233.138 799.577 228.744 807.219 219.957C814.862 211.169 818.684 198.873 818.684 183.069C818.684 166.822 814.959 154.273 807.509 145.422C800.123 136.572 789.912 132.146 776.874 132.146ZM866.273 252.672C862.419 252.672 859.144 251.44 856.447 248.974C853.749 246.445 852.4 243.443 852.4 239.966C852.4 236.426 853.749 233.391 856.447 230.862C859.144 228.333 862.419 227.069 866.273 227.069C870.19 227.069 873.498 228.333 876.195 230.862C878.957 233.391 880.338 236.426 880.338 239.966C880.338 243.443 878.957 246.445 876.195 248.974C873.498 251.44 870.19 252.672 866.273 252.672Z" fill="#E25624"/>
<mask id="mask0_3568_4166" style="mask-type:alpha" maskUnits="userSpaceOnUse" x="0" y="0" width="188" height="189">
<path d="M187.231 94.2857C187.231 75.9545 181.947 58.0208 172.025 42.6791C162.104 27.3376 147.975 15.2535 131.368 7.90575C114.762 0.557989 96.3974 -1.73477 78.522 1.30804C60.6468 4.35083 44.0364 12.5972 30.7234 25.0381C17.4104 37.4789 7.97224 53.5747 3.56385 71.3555C-0.844526 89.1366 -0.0319015 107.832 5.90228 125.152C11.8365 142.474 22.6348 157.67 36.976 168.881C51.317 180.093 68.5789 186.833 86.6491 188.278L93.9977 94.2857H187.231Z" fill="#B85959"/>
</mask>
<g mask="url(#mask0_3568_4166)">
<path d="M92.0516 2.17242C45.0346 2.17242 6.78992 40.8569 6.78992 88.3968C6.78992 135.936 45.0346 174.62 92.0516 174.62C139.068 174.62 177.312 135.936 177.312 88.3968C177.312 40.8569 139.068 2.17242 92.0516 2.17242ZM165.114 82.3807H132.992C131.953 60.3796 125.259 37.9615 113.679 17.5003C141.78 26.2911 162.663 51.7411 165.114 82.3807ZM97.8413 14.5004C111.768 35.4428 119.882 59.2005 121.096 82.3807H63.0069C64.2125 59.2005 72.3339 35.4428 86.2613 14.5004C88.1807 14.3479 90.1001 14.2037 92.0516 14.2037C94.0021 14.2037 95.9293 14.3479 97.8413 14.5004ZM70.4227 17.5003C58.843 37.9615 52.149 60.3796 51.11 82.3807H18.9882C21.439 51.7411 42.3221 26.2911 70.4227 17.5003ZM18.9882 94.4119H51.11C52.149 116.413 58.843 138.831 70.4227 159.292C42.3221 150.502 21.439 125.052 18.9882 94.4119ZM86.2613 162.293C72.3339 141.35 64.2204 117.592 63.0069 94.4119H121.096C119.89 117.592 111.768 141.35 97.8413 162.293C95.9221 162.445 94.0021 162.589 92.0516 162.589C90.1001 162.589 88.1727 162.445 86.2613 162.293ZM113.679 159.292C125.259 138.831 131.953 116.413 132.992 94.4119H165.114C162.663 125.052 141.78 150.502 113.679 159.292Z" fill="#E25624"/>
</g>
</svg>
