<svg width="20" height="21" viewBox="0 0 20 21" fill="none" xmlns="http://www.w3.org/2000/svg">
<path d="M19.53 18.97L15.689 15.129C16.973 13.606 17.75 11.643 17.75 9.5C17.75 4.675 13.825 0.75 9 0.75C4.175 0.75 0.25 4.675 0.25 9.5C0.25 14.325 4.175 18.25 9 18.25C11.143 18.25 13.106 17.473 14.629 16.189L18.47 20.03C18.616 20.176 18.808 20.25 19 20.25C19.192 20.25 19.384 20.177 19.53 20.03C19.823 19.738 19.823 19.263 19.53 18.97ZM1.75 9.5C1.75 5.502 5.002 2.25 9 2.25C12.998 2.25 16.25 5.502 16.25 9.5C16.25 13.498 12.998 16.75 9 16.75C5.002 16.75 1.75 13.498 1.75 9.5Z" fill="white"/>
</svg>
